<svg width="24" height="24" viewBox="0 0 24 24" fill="none" xmlns="http://www.w3.org/2000/svg">
<path d="M12 2.16094C15.2063 2.16094 15.586 2.17501 16.8469 2.23126C18.0188 2.28282 18.6516 2.4797 19.0735 2.64376C19.6313 2.85938 20.0344 3.12189 20.4516 3.53907C20.8735 3.96095 21.1313 4.35939 21.3469 4.9172C21.511 5.33908 21.7079 5.97658 21.7594 7.14377C21.8157 8.4094 21.8298 8.78909 21.8298 11.9907C21.8298 15.1969 21.8157 15.5766 21.7594 16.8376C21.7079 18.0094 21.511 18.6423 21.3469 19.0641C21.1313 19.6219 20.8688 20.0251 20.4516 20.4423C20.0298 20.8641 19.6313 21.1219 19.0735 21.3376C18.6516 21.5016 18.0141 21.6985 16.8469 21.7501C15.5813 21.8063 15.2016 21.8204 12 21.8204C8.79378 21.8204 8.41409 21.8063 7.15315 21.7501C5.98127 21.6985 5.34846 21.5016 4.92658 21.3376C4.36876 21.1219 3.96564 20.8594 3.54845 20.4423C3.12657 20.0204 2.86876 19.6219 2.65313 19.0641C2.48907 18.6423 2.2922 18.0047 2.24063 16.8376C2.18438 15.5719 2.17032 15.1922 2.17032 11.9907C2.17032 8.7844 2.18438 8.40472 2.24063 7.14377C2.2922 5.97189 2.48907 5.33908 2.65313 4.9172C2.86876 4.35939 3.13126 3.95626 3.54845 3.53907C3.97033 3.1172 4.36876 2.85938 4.92658 2.64376C5.34846 2.4797 5.98596 2.28282 7.15315 2.23126C8.41409 2.17501 8.79378 2.16094 12 2.16094ZM12 0C8.74222 0 8.3344 0.0140625 7.05471 0.0703127C5.77971 0.126563 4.90314 0.332814 4.14376 0.628127C3.35157 0.937503 2.68126 1.34532 2.01563 2.01563C1.34532 2.68126 0.937503 3.35157 0.628127 4.13908C0.332814 4.90314 0.126563 5.77502 0.0703127 7.05002C0.0140625 8.3344 0 8.74222 0 12C0 15.2579 0.0140625 15.6657 0.0703127 16.9454C0.126563 18.2204 0.332814 19.0969 0.628127 19.8563C0.937503 20.6485 1.34532 21.3188 2.01563 21.9844C2.68126 22.6501 3.35157 23.0626 4.13908 23.3673C4.90314 23.6626 5.77502 23.8688 7.05002 23.9251C8.32972 23.9813 8.73753 23.9954 11.9954 23.9954C15.2532 23.9954 15.661 23.9813 16.9407 23.9251C18.2157 23.8688 19.0923 23.6626 19.8516 23.3673C20.6391 23.0626 21.3094 22.6501 21.9751 21.9844C22.6407 21.3188 23.0532 20.6485 23.3579 19.861C23.6532 19.0969 23.8595 18.2251 23.9157 16.9501C23.972 15.6704 23.986 15.2626 23.986 12.0047C23.986 8.74691 23.972 8.33909 23.9157 7.0594C23.8595 5.78439 23.6532 4.90783 23.3579 4.14845C23.0626 3.35157 22.6548 2.68126 21.9844 2.01563C21.3188 1.35 20.6485 0.937503 19.861 0.632815C19.0969 0.337501 18.2251 0.13125 16.9501 0.0750003C15.6657 0.0140626 15.2579 0 12 0Z" fill="#444444"/>
<path d="M12 5.83594C8.59688 5.83594 5.83594 8.59688 5.83594 12C5.83594 15.4032 8.59688 18.1641 12 18.1641C15.4032 18.1641 18.1641 15.4032 18.1641 12C18.1641 8.59688 15.4032 5.83594 12 5.83594ZM12 15.9985C9.7922 15.9985 8.00157 14.2078 8.00157 12C8.00157 9.7922 9.7922 8.00157 12 8.00157C14.2078 8.00157 15.9985 9.7922 15.9985 12C15.9985 14.2078 14.2078 15.9985 12 15.9985Z" fill="#444444"/>
<path d="M19.8474 5.59239C19.8474 6.38927 19.2005 7.03146 18.4083 7.03146C17.6114 7.03146 16.9692 6.38458 16.9692 5.59239C16.9692 4.79551 17.6161 4.15332 18.4083 4.15332C19.2005 4.15332 19.8474 4.8002 19.8474 5.59239Z" fill="#444444"/>
</svg>
