<svg width="26" height="26" viewBox="0 0 26 26" fill="none" xmlns="http://www.w3.org/2000/svg">
<path d="M13.0014 1.25L12.9994 1.25C10.9585 1.25219 8.95328 1.78549 7.18092 2.79747C5.40856 3.80945 3.93008 5.26526 2.89084 7.02177C1.8516 8.77828 1.28738 10.775 1.25365 12.8157C1.22209 14.7255 1.65619 16.6122 2.51583 18.3135L1.27764 23.5186C1.19729 23.8563 1.29788 24.2116 1.54338 24.4571C1.78888 24.7026 2.14415 24.8032 2.48191 24.7229L7.68672 23.4847C9.16539 24.2328 10.787 24.6603 12.4453 24.7373C14.2344 24.8205 16.0188 24.4935 17.6622 23.7815C19.3056 23.0694 20.7644 21.9911 21.9273 20.629C23.0901 19.2668 23.9262 17.6568 24.3716 15.9221C24.817 14.1873 24.86 12.3737 24.4972 10.6198C24.1344 8.86594 23.3754 7.2182 22.2783 5.80252C21.1812 4.38685 19.775 3.2407 18.1672 2.45168C16.5594 1.66265 14.7924 1.25162 13.0014 1.25ZM10.4493 9.94137C10.4564 9.96036 10.4641 9.97912 10.4723 9.99764C10.4316 10.0269 10.3931 10.0592 10.3572 10.0942L9.33216 11.0942C9.1872 11.2356 9.0926 11.4131 9.05246 11.6015C8.56165 10.5117 8.25194 9.34081 8.14344 8.135H10.0651C10.1022 8.75194 10.2314 9.36088 10.4493 9.94137ZM17.8505 17.8686C16.6612 17.7567 15.5064 17.4498 14.43 16.9671C14.6012 16.9221 14.7614 16.8315 14.8913 16.6983L15.8867 15.678C15.9354 15.6295 15.9739 15.594 16.0037 15.5682C16.0195 15.5733 16.0371 15.5792 16.057 15.5861C16.6336 15.801 17.2381 15.9286 17.8505 15.9654V17.8686Z" stroke="#444444" stroke-width="2" stroke-linecap="round" stroke-linejoin="round"/>
</svg>
