<svg width="21" height="22" viewBox="0 0 21 22" fill="none" xmlns="http://www.w3.org/2000/svg">
<g clip-path="url(#clip0_918_2922)">
<path d="M15 18.5V16.8333C15 15.9493 14.6313 15.1014 13.9749 14.4763C13.3185 13.8512 12.4283 13.5 11.5 13.5H4.5C3.57174 13.5 2.6815 13.8512 2.02513 14.4763C1.36875 15.1014 1 15.9493 1 16.8333V18.5" stroke="#8F8F8F" stroke-width="1.3" stroke-linecap="round" stroke-linejoin="round"/>
<path d="M7.5 10.5C9.433 10.5 11 8.933 11 7C11 5.067 9.433 3.5 7.5 3.5C5.567 3.5 4 5.067 4 7C4 8.933 5.567 10.5 7.5 10.5Z" stroke="#8F8F8F" stroke-width="1.3" stroke-linecap="round" stroke-linejoin="round"/>
<path d="M21 18.5V16.7964C20.9993 16.0415 20.7044 15.3082 20.1614 14.7115C19.6184 14.1149 18.8581 13.6887 18 13.5" stroke="#8F8F8F" stroke-width="1.3" stroke-linecap="round" stroke-linejoin="round"/>
<path d="M14 3.5C14.8582 3.69898 15.6188 4.15096 16.162 4.78467C16.7052 5.41838 17 6.19778 17 7C17 7.80222 16.7052 8.58162 16.162 9.21533C15.6188 9.84904 14.8582 10.301 14 10.5" stroke="#8F8F8F" stroke-width="1.3" stroke-linecap="round" stroke-linejoin="round"/>
</g>
<defs>
<clipPath id="clip0_918_2922">
<rect width="21" height="21" fill="white" transform="translate(0 0.5)"/>
</clipPath>
</defs>
</svg>
