<svg width="21" height="18" viewBox="0 0 21 18" fill="none" xmlns="http://www.w3.org/2000/svg">
<path d="M6.34667 11.875H3.65333C3.29333 11.875 3 11.6505 3 11.375C3 11.0995 3.29333 10.875 3.65333 10.875H6.34667C6.70667 10.875 7 11.0995 7 11.375C7 11.6505 6.70667 11.875 6.34667 11.875Z" stroke="#8F8F8F" stroke-width="1.3" stroke-miterlimit="10"/>
<path d="M1 0.89502V8.875H19C19 8.875 16.5972 1.43615 10.1943 1.10736C3.83392 0.778573 1 0.89502 1 0.89502Z" stroke="#8F8F8F" stroke-width="1.3" stroke-miterlimit="10"/>
<path d="M19.2009 8.125H18.4437H17.888H1V17.125H17.888H18.4437H19.1384C19.1384 17.125 20.0137 13.9912 19.9998 12.4419C19.9929 10.8785 19.2009 8.125 19.2009 8.125Z" stroke="#8F8F8F" stroke-width="1.3" stroke-miterlimit="10"/>
</svg>
