<svg width="19" height="19" viewBox="0 0 19 19" fill="none" xmlns="http://www.w3.org/2000/svg">
<path d="M9.5 18C14.1944 18 18 14.1944 18 9.5C18 4.80558 14.1944 1 9.5 1C4.80558 1 1 4.80558 1 9.5C1 14.1944 4.80558 18 9.5 18Z" stroke="#8F8F8F" stroke-width="1.3" stroke-miterlimit="10"/>
<path d="M9.5 12C10.8807 12 12 10.8807 12 9.5C12 8.11929 10.8807 7 9.5 7C8.11929 7 7 8.11929 7 9.5C7 10.8807 8.11929 12 9.5 12Z" stroke="#8F8F8F" stroke-width="1.3" stroke-miterlimit="10"/>
<path d="M1 10H7" stroke="#8F8F8F" stroke-width="1.3" stroke-miterlimit="10"/>
<path d="M12 10H18" stroke="#8F8F8F" stroke-width="1.3" stroke-miterlimit="10"/>
<path d="M10 12V18" stroke="#8F8F8F" stroke-width="1.3" stroke-miterlimit="10"/>
</svg>
