<svg width="140" height="36" viewBox="0 0 140 36" fill="none" xmlns="http://www.w3.org/2000/svg">
<path d="M24.4827 28.2284C25.7733 28.4914 26.4187 28.6228 27.6287 28.8858C26.4993 30.8581 24.886 32.3702 22.8694 33.4221C20.8527 34.474 18.5134 35 15.8514 35C13.1087 35 11.0114 34.6055 9.55941 33.7509C8.02674 32.9619 6.97807 31.7786 6.49408 30.2664C5.92941 28.7543 5.84875 27.1107 6.25209 25.3356C6.65542 23.4291 7.54275 21.7197 8.83341 20.3391C10.1241 18.8927 11.8181 17.8408 13.8347 17.1176C15.8514 16.3945 17.9487 16 20.2074 16C22.708 16 24.7247 16.4602 26.2573 17.4464C27.79 18.3668 28.6773 19.6817 29 21.391C27.6287 21.5882 26.9833 21.7197 25.612 21.917C25.37 20.6021 24.7247 19.6159 23.7567 18.9585C22.7887 18.3668 21.498 18.0381 19.804 18.0381C17.868 18.0381 16.174 18.3668 14.722 19.0242C13.2701 19.6817 12.1407 20.6021 11.4147 21.7197C10.6081 22.8374 10.1241 24.0208 9.88206 25.2699C9.5594 26.8478 9.5594 28.1626 9.88206 29.346C10.2854 30.5294 11.0114 31.3841 12.2214 31.9758C13.4314 32.5675 14.8027 32.8305 16.2547 32.8305C18.11 32.8305 19.804 32.436 21.256 31.6471C22.5467 30.9896 23.676 29.8062 24.4827 28.2284Z" fill="#333333"/>
<path d="M24.4827 28.2284C25.7733 28.4914 26.4187 28.6228 27.6287 28.8858C26.4993 30.8581 24.886 32.3702 22.8694 33.4221C20.8527 34.474 18.5134 35 15.8514 35C13.1087 35 11.0114 34.6055 9.55941 33.7509C8.02674 32.9619 6.97807 31.7786 6.49408 30.2664C5.92941 28.7543 5.84875 27.1107 6.25209 25.3356C6.65542 23.4291 7.54275 21.7197 8.83341 20.3391C10.1241 18.8927 11.8181 17.8408 13.8347 17.1176C15.8514 16.3945 17.9487 16 20.2074 16C22.708 16 24.7247 16.4602 26.2573 17.4464C27.79 18.3668 28.6773 19.6817 29 21.391C27.6287 21.5882 26.9833 21.7197 25.612 21.917C25.37 20.6021 24.7247 19.6159 23.7567 18.9585C22.7887 18.3668 21.498 18.0381 19.804 18.0381C17.868 18.0381 16.174 18.3668 14.722 19.0242C13.2701 19.6817 12.1407 20.6021 11.4147 21.7197C10.6081 22.8374 10.1241 24.0208 9.88206 25.2699C9.5594 26.8478 9.5594 28.1626 9.88206 29.346C10.2854 30.5294 11.0114 31.3841 12.2214 31.9758C13.4314 32.5675 14.8027 32.8304 16.2547 32.8304C18.11 32.8304 19.804 32.436 21.256 31.6471C22.5467 30.9896 23.676 29.8062 24.4827 28.2284Z" stroke="#333333" stroke-width="1.58231" stroke-miterlimit="10"/>
<path d="M41.255 33.0374C39.9897 33.757 38.8034 34.215 37.6963 34.5421C36.5891 34.8037 35.482 35 34.2957 35C32.3187 35 30.8952 34.6075 30.0253 33.8878C29.1553 33.1682 28.839 32.2523 29.0763 31.1402C29.2344 30.486 29.5508 29.8972 30.0253 29.3738C30.4998 28.8505 31.1324 28.3925 31.8442 28.0654C32.5559 27.7383 33.3467 27.4766 34.1376 27.3458C34.7702 27.215 35.6401 27.1495 36.9055 27.0187C39.357 26.8224 41.255 26.5607 42.4413 26.2336C42.5203 25.9065 42.5994 25.7103 42.5994 25.6449C42.7576 24.729 42.6785 24.0748 42.1249 23.6822C41.4923 23.1589 40.3851 22.8972 38.8825 22.8972C37.4591 22.8972 36.3519 23.0935 35.6401 23.4206C34.8493 23.8131 34.2166 24.4673 33.7421 25.3832C32.5559 25.2523 32.0023 25.1869 30.8952 25.0561C31.3697 24.1402 32.0023 23.3551 32.7141 22.7664C33.4258 22.1776 34.4539 21.7196 35.7192 21.4579C36.9055 21.1308 38.329 21 39.8315 21C41.3341 21 42.5204 21.1308 43.4693 21.3925C44.3393 21.6542 44.9719 21.9813 45.3673 22.4392C45.7628 22.8318 45.9209 23.3551 46 23.9439C46 24.3364 45.9209 24.9907 45.6837 26.0374C45.4464 27.215 45.2882 27.8037 45.051 29.0467C44.5765 31.1402 44.3393 32.4486 44.4183 32.972C44.4183 33.4953 44.5765 34.0841 44.8138 34.5421C43.5484 34.5421 42.9158 34.5421 41.6504 34.5421C41.255 34.215 41.1759 33.6916 41.255 33.0374ZM42.1249 28.0654C40.9387 28.3925 39.2779 28.6542 36.9845 28.9159C35.7192 29.0467 34.7702 29.1776 34.2167 29.3738C33.6631 29.5701 33.1886 29.7664 32.8722 30.0935C32.5559 30.4206 32.3187 30.7477 32.2396 31.1402C32.0814 31.729 32.3187 32.2523 32.8722 32.6449C33.4258 33.0374 34.2167 33.2336 35.4029 33.2336C36.5891 33.2336 37.6172 33.0374 38.6453 32.7103C39.6734 32.3178 40.3851 31.7944 41.0178 31.1402C41.4923 30.6168 41.8086 29.8972 41.9668 28.9159C41.9668 28.5234 42.0459 28.3925 42.1249 28.0654Z" fill="#333333"/>
<path d="M41.255 33.0374C39.9897 33.757 38.8034 34.215 37.6963 34.5421C36.5891 34.8037 35.482 35 34.2957 35C32.3187 35 30.8952 34.6075 30.0253 33.8878C29.1553 33.1682 28.839 32.2523 29.0763 31.1402C29.2344 30.486 29.5508 29.8972 30.0253 29.3738C30.4998 28.8505 31.1324 28.3925 31.8442 28.0654C32.5559 27.7383 33.3467 27.4766 34.1376 27.3458C34.7702 27.215 35.6401 27.1495 36.9055 27.0187C39.357 26.8224 41.255 26.5607 42.4413 26.2336C42.5203 25.9065 42.5994 25.7103 42.5994 25.6449C42.7576 24.729 42.6785 24.0748 42.1249 23.6822C41.4923 23.1589 40.3851 22.8972 38.8825 22.8972C37.4591 22.8972 36.3519 23.0935 35.6401 23.4206C34.8493 23.8131 34.2166 24.4673 33.7421 25.3832C32.5559 25.2523 32.0023 25.1869 30.8952 25.0561C31.3697 24.1402 32.0023 23.3551 32.7141 22.7664C33.4258 22.1776 34.4539 21.7196 35.7192 21.4579C36.9055 21.1308 38.329 21 39.8315 21C41.3341 21 42.5204 21.1308 43.4693 21.3925C44.3393 21.6542 44.9719 21.9813 45.3673 22.4392C45.7628 22.8318 45.9209 23.3551 46 23.9439C46 24.3364 45.9209 24.9907 45.6837 26.0374C45.4464 27.215 45.2882 27.8037 45.051 29.0467C44.5765 31.1402 44.3393 32.4486 44.4183 32.972C44.4183 33.4953 44.5765 34.0841 44.8138 34.5421C43.5484 34.5421 42.9158 34.5421 41.6504 34.5421C41.255 34.215 41.1759 33.6916 41.255 33.0374ZM42.1249 28.0654C40.9387 28.3925 39.2779 28.6542 36.9845 28.9159C35.7192 29.0467 34.7702 29.1776 34.2167 29.3738C33.6631 29.5701 33.1886 29.7664 32.8722 30.0935C32.5559 30.4206 32.3187 30.7477 32.2396 31.1402C32.0814 31.729 32.3187 32.2523 32.8722 32.6449C33.4258 33.0374 34.2167 33.2336 35.4029 33.2336C36.5891 33.2336 37.6172 33.0374 38.6453 32.7103C39.6734 32.3178 40.3851 31.7944 41.0178 31.1402C41.4923 30.6168 41.8086 29.8972 41.9668 28.9159C41.9668 28.5234 42.0459 28.3925 42.1249 28.0654Z" stroke="#333333" stroke-width="1.58231" stroke-miterlimit="10"/>
<path d="M49 33.875C50.1465 28.8125 50.6815 26.3125 51.828 21.25C52.8981 21.25 53.4331 21.25 54.4268 21.25C54.2739 22 54.1975 22.375 53.9682 23.1875C54.8089 22.3125 55.5733 21.6875 56.1847 21.4375C56.7962 21.125 57.4841 21 58.172 21C59.1656 21 60.0828 21.25 61 21.6875C60.3885 22.5 60.1592 22.875 59.5478 23.6875C58.9363 23.375 58.2484 23.25 57.4841 23.25C56.8726 23.25 56.2612 23.375 55.6497 23.6875C55.0382 24 54.6561 24.375 54.2739 24.875C53.7389 25.625 53.4331 26.5 53.2038 27.375C52.5924 30 52.2866 31.375 51.7516 34C50.758 33.875 50.1465 33.875 49 33.875Z" fill="#333333"/>
<path d="M49 33.875C50.1465 28.8125 50.6815 26.3125 51.828 21.25C52.8981 21.25 53.4331 21.25 54.4268 21.25C54.2739 22 54.1975 22.375 53.9682 23.1875C54.8089 22.3125 55.5733 21.6875 56.1847 21.4375C56.7962 21.125 57.4841 21 58.172 21C59.1656 21 60.0828 21.25 61 21.6875C60.3885 22.5 60.1592 22.875 59.5478 23.6875C58.9363 23.375 58.2484 23.25 57.4841 23.25C56.8726 23.25 56.2612 23.375 55.6497 23.6875C55.0382 24 54.6561 24.375 54.2739 24.875C53.7389 25.625 53.4331 26.5 53.2038 27.375C52.5924 30 52.2866 31.375 51.7516 34C50.758 33.875 50.1465 33.875 49 33.875Z" stroke="#333333" stroke-width="1.58231" stroke-miterlimit="10"/>
<path d="M61 33.8719C62.6007 26.6975 63.401 23.1103 65.0817 16C69.4836 16 71.7245 16 76.1264 16.0641C78.3673 16.0641 79.968 16.2562 81.0885 16.5765C82.209 16.8968 82.9293 17.4733 83.4895 18.3061C83.9697 19.1388 84.1298 20.0356 83.8897 20.9964C83.5696 22.2776 82.7692 23.3025 81.4887 24.1993C80.1281 25.0961 78.2873 25.6085 75.8063 25.8648C76.6066 26.1851 77.1668 26.4413 77.567 26.7616C78.3673 27.4021 79.0877 28.1708 79.7279 29.1317C81.0085 31.0534 81.6487 32.0783 82.9293 34C81.2486 34 80.4482 34 78.7675 34C77.8071 32.5267 77.3269 31.758 76.2865 30.2847C75.5662 29.1957 74.9259 28.363 74.4457 27.7865C73.9655 27.21 73.4853 26.8256 73.0851 26.5694C72.6849 26.3132 72.2047 26.1851 71.7245 26.0569C71.4044 25.9929 70.7641 25.9929 69.8838 25.9929C68.3631 25.9929 67.5628 25.9929 66.0421 25.9929C65.3218 29.1957 65.0017 30.7331 64.2814 33.936C63.0008 33.936 62.3606 33.936 61 33.8719ZM66.6024 23.9431C69.4036 23.9431 70.8442 23.9431 73.6454 23.9431C75.166 23.9431 76.3665 23.815 77.2469 23.6228C78.1273 23.4306 78.8476 23.0463 79.4078 22.5338C79.968 22.0214 80.2882 21.5089 80.4482 20.9324C80.6083 20.0996 80.3682 19.395 79.6479 18.8185C78.9276 18.242 77.647 17.9858 75.8063 17.9858C72.6849 17.9858 71.0843 17.9858 67.963 17.9858C67.4027 20.3559 67.0826 21.573 66.6024 23.9431Z" fill="#E85638"/>
<path d="M61 33.8719C62.6007 26.6975 63.401 23.1103 65.0817 16C69.4836 16 71.7245 16 76.1264 16.0641C78.3673 16.0641 79.968 16.2562 81.0885 16.5765C82.209 16.8968 82.9293 17.4733 83.4895 18.3061C83.9697 19.1388 84.1298 20.0356 83.8897 20.9964C83.5696 22.2776 82.7692 23.3025 81.4887 24.1993C80.1281 25.0961 78.2873 25.6085 75.8063 25.8648C76.6066 26.1851 77.1668 26.4413 77.567 26.7616C78.3673 27.4021 79.0877 28.1708 79.7279 29.1317C81.0085 31.0534 81.6487 32.0783 82.9293 34C81.2486 34 80.4482 34 78.7675 34C77.8071 32.5267 77.3269 31.758 76.2865 30.2847C75.5662 29.1957 74.9259 28.363 74.4457 27.7865C73.9655 27.21 73.4853 26.8256 73.0851 26.5694C72.6849 26.3132 72.2047 26.1851 71.7245 26.0569C71.4044 25.9929 70.7641 25.9929 69.8838 25.9929C68.3631 25.9929 67.5628 25.9929 66.0421 25.9929C65.3218 29.1957 65.0017 30.7331 64.2814 33.936C63.0008 33.936 62.3606 33.936 61 33.8719ZM66.6024 23.9431C69.4036 23.9431 70.8442 23.9431 73.6454 23.9431C75.166 23.9431 76.3665 23.815 77.2469 23.6228C78.1273 23.4306 78.8476 23.0463 79.4078 22.5338C79.968 22.0214 80.2882 21.5089 80.4482 20.9324C80.6083 20.0996 80.3682 19.395 79.6479 18.8185C78.9276 18.242 77.647 17.9858 75.8063 17.9858C72.6849 17.9858 71.0843 17.9858 67.963 17.9858C67.4027 20.3559 67.0826 21.573 66.6024 23.9431Z" stroke="#E85638" stroke-width="1.58231" stroke-miterlimit="10"/>
<path d="M97.9108 30.3774C99.1028 30.5094 99.7386 30.5755 101.01 30.7076C100.215 32.0943 99.1029 33.1509 97.5929 33.8774C96.0829 34.6038 94.255 35 92.1887 35C89.5661 35 87.6587 34.4057 86.3872 33.1509C85.1156 31.9623 84.7182 30.2453 85.1951 28.066C85.6719 25.8208 86.864 24.1038 88.6919 22.8491C90.5198 21.5943 92.6655 21 95.1292 21C97.5134 21 99.3413 21.6604 100.613 22.8491C101.884 24.1038 102.282 25.7547 101.805 28C101.805 28.1321 101.725 28.3302 101.646 28.5943C96.3213 28.5943 93.6192 28.5943 88.2945 28.5283C88.0561 29.9811 88.374 31.1038 89.2482 31.8962C90.0429 32.6887 91.235 33.0849 92.745 33.0849C93.8576 33.0849 94.8908 32.8868 95.765 32.4245C96.4803 32.0283 97.275 31.3679 97.9108 30.3774ZM88.7714 26.6792C92.745 26.6792 94.7318 26.6792 98.785 26.7453C98.8644 25.6226 98.7055 24.7641 98.2287 24.2358C97.4339 23.3774 96.3213 22.9151 94.7318 22.9151C93.3808 22.9151 92.1092 23.2453 90.9966 23.9717C89.884 24.6321 89.0893 25.5566 88.7714 26.6792Z" fill="#E85638"/>
<path d="M97.9108 30.3774C99.1028 30.5094 99.7386 30.5755 101.01 30.7076C100.215 32.0943 99.1029 33.1509 97.5929 33.8774C96.0829 34.6038 94.255 35 92.1887 35C89.5661 35 87.6587 34.4057 86.3872 33.1509C85.1156 31.9623 84.7182 30.2453 85.1951 28.066C85.6719 25.8208 86.864 24.1038 88.6919 22.8491C90.5198 21.5943 92.6655 21 95.1292 21C97.5134 21 99.3413 21.6604 100.613 22.8491C101.884 24.1038 102.282 25.7547 101.805 28C101.805 28.1321 101.725 28.3302 101.646 28.5943C96.3213 28.5943 93.6192 28.5943 88.2945 28.5283C88.0561 29.9811 88.374 31.1038 89.2482 31.8962C90.0429 32.6887 91.235 33.0849 92.745 33.0849C93.8576 33.0849 94.8908 32.8868 95.765 32.4245C96.4803 32.0283 97.275 31.3679 97.9108 30.3774ZM88.7714 26.6792C92.745 26.6792 94.7318 26.6792 98.785 26.7453C98.8644 25.6226 98.7055 24.7641 98.2287 24.2358C97.4339 23.3774 96.3213 22.9151 94.7318 22.9151C93.3808 22.9151 92.1092 23.2453 90.9966 23.9717C89.884 24.6321 89.0893 25.5566 88.7714 26.6792Z" stroke="#E85638" stroke-width="1.58231" stroke-miterlimit="10"/>
<path d="M104 34C105.22 28.8883 105.789 26.3641 107.01 21.2524C108.148 21.2524 108.718 21.2524 109.775 21.2524C109.612 22.0097 109.531 22.3252 109.368 23.0825C110.995 21.6942 113.11 21 115.713 21C116.852 21 117.828 21.1262 118.641 21.4417C119.455 21.6942 120.105 22.0728 120.431 22.5146C120.756 22.9563 121 23.5243 121 24.0922C121 24.4709 120.919 25.165 120.675 26.1748C119.943 29.3301 119.536 30.9078 118.804 34C117.584 34 116.933 34 115.713 34C116.445 30.9078 116.77 29.3301 117.502 26.2379C117.665 25.3544 117.746 24.7233 117.584 24.2816C117.421 23.8398 117.096 23.5243 116.526 23.2087C115.957 22.9563 115.306 22.8301 114.411 22.8301C113.11 22.8301 111.89 23.0825 110.751 23.7136C109.612 24.2816 108.88 25.4175 108.555 27.0582C107.904 29.8349 107.579 31.2233 106.928 34C105.871 34 105.22 34 104 34Z" fill="#E85638"/>
<path d="M104 34C105.22 28.8883 105.789 26.3641 107.01 21.2524C108.148 21.2524 108.718 21.2524 109.775 21.2524C109.612 22.0097 109.531 22.3252 109.368 23.0825C110.995 21.6942 113.11 21 115.713 21C116.852 21 117.828 21.1262 118.641 21.4417C119.455 21.6942 120.105 22.0728 120.431 22.5146C120.756 22.9563 121 23.5243 121 24.0922C121 24.4709 120.919 25.165 120.675 26.1748C119.943 29.3301 119.536 30.9078 118.804 34C117.584 34 116.933 34 115.713 34C116.445 30.9078 116.77 29.3301 117.502 26.2379C117.665 25.3544 117.746 24.7233 117.584 24.2816C117.421 23.8398 117.096 23.5243 116.526 23.2087C115.957 22.9563 115.306 22.8301 114.411 22.8301C113.11 22.8301 111.89 23.0825 110.751 23.7136C109.612 24.2816 108.88 25.4175 108.555 27.0582C107.904 29.8349 107.579 31.2233 106.928 34C105.871 34 105.22 34 104 34Z" stroke="#E85638" stroke-width="1.58231" stroke-miterlimit="10"/>
<path d="M130.358 32.8478C130.358 33.6304 130.358 34.0217 130.358 34.8043C129.45 34.9348 128.624 35 127.963 35C126.807 35 125.982 34.8696 125.404 34.6087C124.826 34.3478 124.495 34.0217 124.33 33.5652C124.165 33.1087 124.248 32.2609 124.578 30.8913C125.239 27.8261 125.651 26.3261 126.312 23.3261C125.404 23.3261 124.908 23.3261 124 23.3261C124.165 22.6087 124.248 22.2826 124.413 21.5652C125.321 21.5652 125.817 21.5652 126.725 21.5652C127.055 20.2609 127.138 19.6087 127.468 18.3044C128.872 17.7826 129.532 17.5217 130.936 17C130.523 18.8261 130.275 19.7391 129.862 21.6304C131.101 21.6304 131.761 21.6304 133 21.6304C132.835 22.3478 132.752 22.6739 132.587 23.3913C131.349 23.3913 130.688 23.3913 129.45 23.3913C128.706 26.4565 128.376 28.0217 127.716 31.087C127.55 31.7391 127.55 32.1304 127.633 32.3261C127.716 32.5217 127.881 32.6522 128.046 32.7826C128.294 32.913 128.624 32.913 129.119 32.913C129.367 32.913 129.78 32.913 130.358 32.8478Z" fill="#E85638"/>
<path d="M130.358 32.8478C130.358 33.6304 130.358 34.0217 130.358 34.8043C129.45 34.9348 128.624 35 127.963 35C126.807 35 125.982 34.8696 125.404 34.6087C124.826 34.3478 124.495 34.0217 124.33 33.5652C124.165 33.1087 124.248 32.2609 124.578 30.8913C125.239 27.8261 125.651 26.3261 126.312 23.3261C125.404 23.3261 124.908 23.3261 124 23.3261C124.165 22.6087 124.248 22.2826 124.413 21.5652C125.321 21.5652 125.817 21.5652 126.725 21.5652C127.055 20.2609 127.138 19.6087 127.468 18.3044C128.872 17.7826 129.532 17.5217 130.936 17C130.523 18.8261 130.275 19.7391 129.862 21.6304C131.101 21.6304 131.761 21.6304 133 21.6304C132.835 22.3478 132.752 22.6739 132.587 23.3913C131.349 23.3913 130.688 23.3913 129.45 23.3913C128.706 26.4565 128.376 28.0217 127.716 31.087C127.55 31.7391 127.55 32.1304 127.633 32.3261C127.716 32.5217 127.881 32.6522 128.046 32.7826C128.294 32.913 128.624 32.913 129.119 32.913C129.367 32.913 129.78 32.913 130.358 32.8478Z" stroke="#E85638" stroke-width="1.58231" stroke-miterlimit="10"/>
<path d="M2.00063 15.5633C1.8424 15.5633 31.5898 2.43733 49.9446 2.04551C65.0556 1.71899 67.9829 3.22097 72.4924 4.26583C77.002 5.31068 90.6099 9.16359 97.4138 9.49011C104.139 9.81662 118.221 9.81663 123.759 10.7962C129.297 11.7104 135.231 14.7797 138 17" stroke="#E85638" stroke-width="3.16462" stroke-miterlimit="10" stroke-linecap="round"/>
</svg>
